<svg width="66" height="63" viewBox="0 0 66 63" xmlns="http://www.w3.org/2000/svg"><title>design-icon</title><g fill="none" fill-rule="evenodd"><path d="M6 6h25.254C36.022 6 44 18.414 44 18.414V61H6V6z" fill="#FBF393"/><path d="M43.38 16.377v42.32c0 1.202-1.016 2.215-2.217 2.215H4.5c-1.206 0-2.22-.996-2.22-2.214V4.165c0-1.218.997-2.214 2.22-2.214h24.426L43.38 16.378zm0 0H31.144a2.222 2.222 0 0 1-2.218-2.213V1.95L43.38 16.378z" stroke="#000" stroke-width="3" stroke-linecap="round" stroke-linejoin="round"/><path d="M51.238 9.35h7.918v41.015c0 8.177-7.918 8.177-7.918 0V9.35z"/><path d="M51.238 9.35h7.918v41.015c0 8.177-7.918 8.177-7.918 0V9.35z" stroke="#000" stroke-width="3" stroke-linecap="round" stroke-linejoin="round"/><path d="M64.308 31.13l.03-15.32H51.19" stroke="#000" stroke-width="3" stroke-linecap="round" stroke-linejoin="round"/><path d="M55.064 60.912v-4.418" fill="#86EEF0"/><path d="M55 60.912v-4.418" stroke="#000" stroke-width="2" stroke-linecap="round" stroke-linejoin="round"/><path d="M11.146 13.812H22.83M11.146 24.85h23.37m-23.37 6.443h23.37m-23.37 6.443h23.37m-23.37 6.444H22.83" stroke="#443B30" stroke-width="2" stroke-linecap="round" stroke-linejoin="round"/></g></svg>