<svg width="20" height="20" viewBox="0 0 20 20" xmlns="http://www.w3.org/2000/svg"><title>dribbble</title><path d="M10 0C4.486 0 0 4.486 0 10s4.486 10 10 10 10-4.486 10-10S15.514 0 10 0zm6.58 4.72a8.406 8.406 0 0 1 1.866 5.15 20.96 20.96 0 0 0-3.91-.377c-.618 0-1.27.03-1.924.112-.056-.134-.11-.27-.17-.404-.17-.398-.35-.795-.54-1.184 2.955-1.22 4.382-2.913 4.677-3.296zM10 1.565a8.41 8.41 0 0 1 5.566 2.1c-.236.32-1.513 1.92-4.363 2.998a45.61 45.61 0 0 0-3.108-4.88A8.41 8.41 0 0 1 10 1.565zm-3.63.82c.292.402 1.738 2.423 3.092 4.82-3.632.955-6.858 1.018-7.636 1.018h-.082A8.478 8.478 0 0 1 6.37 2.386zm-4.818 7.628c0-.07 0-.14.003-.21.05.002.125.003.222.003 1.048 0 4.687-.087 8.437-1.202.228.446.445.9.646 1.35a9.983 9.983 0 0 0-.28.085c-4.223 1.365-6.544 4.98-6.9 5.57a8.412 8.412 0 0 1-2.128-5.597zM10 18.46a8.406 8.406 0 0 1-5.153-1.758c.24-.473 1.993-3.632 6.62-5.245a.134.134 0 0 0 .01-.003c1.16 3.025 1.65 5.564 1.787 6.35A8.394 8.394 0 0 1 10 18.46zm4.785-1.488c-.114-.65-.57-3.03-1.62-5.932.59-.092 1.163-.128 1.7-.128 1.767 0 3.148.387 3.47.485a8.463 8.463 0 0 1-3.55 5.575z" fill="#000" fill-rule="evenodd"/></svg>