<svg width="20" height="18" viewBox="0 0 20 18" xmlns="http://www.w3.org/2000/svg"><title>github</title><path d="M13.48 9.96c.383 0 .7.19.98.567.273.38.42.84.42 1.393 0 .55-.147 1.016-.42 1.39-.277.38-.597.566-.98.566-.4 0-.747-.187-1.023-.566-.274-.374-.42-.84-.42-1.39 0-.553.146-1.014.42-1.393.274-.377.623-.566 1.022-.566m4.913-5.083C19.46 6.037 20 7.44 20 9.097c0 1.067-.123 2.032-.37 2.89-.25.852-.563 1.547-.934 2.083a6.097 6.097 0 0 1-1.392 1.413c-.55.408-1.058.703-1.52.89-.465.188-.994.333-1.588.437-.596.1-1.037.16-1.347.176-.306.013-.627.02-.98.02-.08 0-.347.005-.78.02a25.095 25.095 0 0 1-2.18 0c-.433-.015-.7-.02-.78-.02-.35 0-.674-.007-.98-.02a12.81 12.81 0 0 1-1.346-.176 7.543 7.543 0 0 1-1.587-.437c-.463-.187-.97-.482-1.52-.89a6.075 6.075 0 0 1-1.393-1.413C.93 13.534.62 12.84.37 11.986.123 11.13 0 10.164 0 9.096c0-1.655.54-3.062 1.607-4.22-.117-.057-.12-.637-.01-1.737.09-1.103.323-2.12.706-3.047C3.637.233 5.29.99 7.26 2.35c.667-.17 1.574-.26 2.74-.26 1.217 0 2.13.09 2.74.263.9-.607 1.757-1.102 2.58-1.477.833-.373 1.434-.595 1.81-.653l.567-.13c.386.928.62 1.944.71 3.047.107 1.1.103 1.68-.014 1.737m-8.35 11.172c2.41 0 4.22-.29 5.458-.87 1.223-.576 1.847-1.767 1.847-3.564 0-1.043-.39-1.915-1.174-2.612a2.636 2.636 0 0 0-1.413-.694c-.536-.087-1.356-.087-2.457 0-1.1.09-1.854.13-2.26.13-.55 0-1.143-.027-1.884-.086a55.566 55.566 0 0 0-1.75-.11c-.42-.014-.87.037-1.367.153-.493.117-.9.32-1.22.607-.743.67-1.127 1.54-1.127 2.612 0 1.797.608 2.988 1.828 3.565 1.215.58 3.02.87 5.432.87h.087M6.566 9.96c.383 0 .703.19.978.567.275.38.42.84.42 1.393 0 .55-.145 1.016-.42 1.39-.274.38-.595.566-.978.566-.4 0-.746-.187-1.023-.566-.274-.374-.42-.84-.42-1.39 0-.553.146-1.014.42-1.393.276-.377.623-.566 1.023-.566" fill="#030104" fill-rule="evenodd"/></svg>