<svg width="31" height="21" viewBox="0 0 31 21" xmlns="http://www.w3.org/2000/svg"><title>left-arrow-inactive</title><path d="M3.185 8.98l7.817-7.348a.933.933 0 1 0-1.32-1.32L.272 9.34a.95.95 0 0 0-.117.143c-.014.02-.023.043-.036.065-.018.03-.037.062-.05.095-.012.028-.018.056-.027.084-.01.03-.02.06-.027.09a.935.935 0 0 0-.014.145c-.004.052 0 .066 0 .08a.907.907 0 0 0 .014.14c.007.033.02.064.03.096.007.026.013.053.023.078.014.036.034.07.053.103.066.11.105.157.15.2l9.41 10.1a.93.93 0 0 0 1.32 0 .933.933 0 0 0 0-1.32l-7.818-8.46 25.888.02c.458-.006.95-.354 1-1-.05-.562-.542-.872-1-1L3.185 8.98z" fill="#EDE8DA" fill-rule="evenodd"/></svg>