<svg width="31" height="21" viewBox="0 0 31 21" xmlns="http://www.w3.org/2000/svg"><title>right-arrow-inactive</title><path d="M27.815 8.98l-7.817-7.348a.933.933 0 1 1 1.32-1.32l9.41 9.028a.95.95 0 0 1 .117.143c.014.02.023.043.036.065.018.03.037.062.05.095.012.028.018.056.027.084.01.03.02.06.027.09.01.05.012.097.014.145.004.052 0 .066 0 .08a.907.907 0 0 1-.014.14c-.007.033-.02.064-.03.096-.007.026-.013.053-.023.078-.014.036-.034.07-.053.103a.932.932 0 0 1-.15.2l-9.41 10.1a.93.93 0 0 1-1.32 0 .933.933 0 0 1 0-1.32l7.818-8.46L1.927 11c-.458-.006-.95-.354-1-1 .05-.562.542-.872 1-1l25.888-.02z" fill="#EDE8DA" fill-rule="evenodd"/></svg>