<svg width="63" height="63" viewBox="0 0 63 63" xmlns="http://www.w3.org/2000/svg"><title>tech-icon</title><g fill="none" fill-rule="evenodd"><path d="M42.2 7.845c-3.334 3.37-4.475 8.117-3.424 12.433L7.62 51.786c-2.6 2.632-4.77 5.49-2.163 8.128a6.67 6.67 0 0 0 9.483 0l31.154-31.508a12.87 12.87 0 0 0 12.294-3.463c3.493-3.53 4.58-8.572 3.258-13.046l-6.55 6.625-3.434-.93-1.273.53-4.518-8.082 6.55-6.624c-3.263 2.13-6.73.898-10.223 4.43z" fill="#FF9494"/><path d="M52.1 2.55a12.87 12.87 0 0 0-12.9 3.295c-3.334 3.37-4.475 8.117-3.424 12.433L4.62 49.786c-2.6 2.632-2.607 6.953 0 9.59a6.67 6.67 0 0 0 9.484 0L45.26 27.87a12.87 12.87 0 0 0 12.292-3.462c3.494-3.53 4.58-8.573 3.258-13.046l-6.55 6.624-3.434-.93-3.437-.93-1.84-6.95L52.1 2.55zm-6.042 36.6l10.517 10.636c2.6 2.627 2.608 6.953 0 9.59a6.67 6.67 0 0 1-9.483 0L36.575 48.74l9.483-9.59zM12.574 14.875l12.995 13.14-12.996-13.14zM35.34 37.9l6.03 6.096-6.03-6.097zM2 7.7l4.146-4.194 9.67 5.96-7.922 8.013L2 7.7z" stroke="#000" stroke-width="3"/><path d="M42.81 20.854L11.304 51.806" stroke="#000" stroke-width="2"/></g></svg>