<svg width="20" height="17" viewBox="0 0 20 17" xmlns="http://www.w3.org/2000/svg"><title>twitter</title><path d="M19.994 1.936a8.19 8.19 0 0 1-2.355.646A4.12 4.12 0 0 0 19.44.314a8.27 8.27 0 0 1-2.606.996 4.102 4.102 0 0 0-6.99 3.74A11.645 11.645 0 0 1 1.394.764a4.07 4.07 0 0 0-.555 2.062A4.1 4.1 0 0 0 2.663 6.24a4.102 4.102 0 0 1-1.858-.516v.05a4.106 4.106 0 0 0 3.29 4.023 4.155 4.155 0 0 1-1.08.144c-.266 0-.522-.025-.774-.075a4.104 4.104 0 0 0 3.832 2.85 8.23 8.23 0 0 1-5.094 1.75c-.33 0-.657-.02-.978-.055a11.594 11.594 0 0 0 6.287 1.846c7.545 0 11.67-6.25 11.67-11.67l-.014-.53a8.19 8.19 0 0 0 2.05-2.12z" fill="#010002" fill-rule="evenodd"/></svg>