<?xml version="1.0" encoding="UTF-8" standalone="no"?>
<svg width="20px" height="20px" viewBox="0 0 20 20" version="1.1" xmlns="http://www.w3.org/2000/svg" xmlns:xlink="http://www.w3.org/1999/xlink" xmlns:sketch="http://www.bohemiancoding.com/sketch/ns">
    <!-- Generator: Sketch 3.3.3 (12081) - http://www.bohemiancoding.com/sketch -->
    <title>dribbble</title>
    <desc>Created with Sketch.</desc>
    <defs></defs>
    <g id="Page-1" stroke="none" stroke-width="1" fill="none" fill-rule="evenodd" sketch:type="MSPage">
        <g id="Homepage-#2" sketch:type="MSArtboardGroup" transform="translate(-1090.000000, -3819.000000)" fill="#000000">
            <g id="footer" sketch:type="MSLayerGroup" transform="translate(0.000000, 3476.000000)">
                <g id="social-icons" transform="translate(990.000000, 343.000000)" sketch:type="MSShapeGroup">
                    <path d="M110,0 C104.486045,0.000206560357 100.000206,4.48587127 100,10 C100.000206,15.5141287 104.486045,20 110,20 C115.513955,20 119.999794,15.5141287 120,10 C119.999794,4.48587127 115.513955,0.000206560357 110,0 L110,0 Z M116.579409,4.72031728 C117.719743,6.13546228 118.413681,7.92365529 118.445861,9.87069322 C118.066299,9.79385276 116.458527,9.49268776 114.537409,9.49268776 C113.917734,9.49268776 113.265466,9.5242915 112.611548,9.60464348 C112.55647,9.47079237 112.500774,9.33611501 112.44322,9.20102454 C112.273243,8.80153681 112.091095,8.40535404 111.901314,8.01557465 C114.857149,6.79583574 116.284217,5.10307362 116.579409,4.72031728 L116.579409,4.72031728 Z M110,1.56490126 C112.130495,1.56490126 114.078223,2.35788647 115.565938,3.66376105 C115.330157,3.98578865 114.053262,5.58353301 111.202632,6.66301743 C109.88345,4.24688094 108.438435,2.24758324 108.094767,1.783029 C108.707428,1.64070892 109.344844,1.56490126 110,1.56490126 L110,1.56490126 Z M106.371063,2.38577212 C106.662335,2.78691234 108.108381,4.80769231 109.4616,7.20461869 C105.829775,8.1601669 102.604328,8.22296125 101.826227,8.22296125 L101.743714,8.22296125 C102.302535,5.64198959 104.044392,3.4972734 106.371063,2.38577212 L106.371063,2.38577212 Z M101.551664,10.0130133 C101.551664,9.94360902 101.553314,9.87399818 101.555377,9.80438734 C101.605916,9.80521358 101.679972,9.80603982 101.776925,9.80603982 C102.824845,9.80603982 106.464096,9.71866479 110.214122,8.60406511 C110.441653,9.05023548 110.658663,9.50260266 110.859583,9.95455672 C110.765724,9.98182269 110.671865,10.0095018 110.579037,10.039453 C106.357035,11.4052301 104.035522,15.0200364 103.678652,15.6105924 C102.355963,14.1184004 101.551664,12.1583492 101.551664,10.0130133 L101.551664,10.0130133 Z M110,18.4613319 C108.061555,18.4613319 106.274522,17.8040568 104.847247,16.7024705 C105.088392,16.228621 106.839738,13.0703131 111.467294,11.4574899 C111.470594,11.4564571 111.473895,11.4552177 111.476989,11.4539784 C112.636508,14.4792613 113.128081,17.0180947 113.26361,17.80447 C112.259009,18.227299 111.156218,18.4613319 110,18.4613319 L110,18.4613319 Z M114.784537,16.9718252 C114.671287,16.32116 114.216226,13.9415847 113.165212,11.0396183 C113.75477,10.9483186 114.328444,10.9121705 114.866019,10.9121705 C116.631598,10.911964 118.012872,11.2990581 118.333849,11.3967611 C117.952225,13.7021813 116.634486,15.6956953 114.784537,16.9718252 L114.784537,16.9718252 Z" id="dribbble"></path>
                </g>
            </g>
        </g>
    </g>
</svg>