<?xml version="1.0" encoding="UTF-8" standalone="no"?>
<svg width="31px" height="21px" viewBox="0 0 31 21" version="1.1" xmlns="http://www.w3.org/2000/svg" xmlns:xlink="http://www.w3.org/1999/xlink" xmlns:sketch="http://www.bohemiancoding.com/sketch/ns">
    <!-- Generator: Sketch 3.3.3 (12081) - http://www.bohemiancoding.com/sketch -->
    <title>left-arrow</title>
    <desc>Created with Sketch.</desc>
    <defs></defs>
    <g id="Page-1" stroke="none" stroke-width="1" fill="none" fill-rule="evenodd" sketch:type="MSPage">
        <g id="Homepage-#2" sketch:type="MSArtboardGroup" transform="translate(-701.000000, -2337.000000)" fill="#EDE8DA">
            <g id="work" sketch:type="MSLayerGroup" transform="translate(0.000000, 1623.000000)">
                <g id="arrows" transform="translate(701.000000, 714.000000)" sketch:type="MSShapeGroup">
                    <path d="M3.18482881,8.9813722 L11.0020193,1.63195718 C11.3664921,1.26748444 11.3664921,0.676441254 11.0020193,0.311968512 C10.6375466,-0.0525042287 10.0465034,-0.0525042287 9.68203068,0.311968512 L0.271380347,9.340064 C0.227979624,9.38346472 0.189245645,9.43153219 0.154945073,9.48263304 C0.14094484,9.50340006 0.131611351,9.5262671 0.119477815,9.54773413 C0.101977524,9.57923465 0.0830772086,9.60980183 0.0690769753,9.64340239 C0.0578767886,9.67070285 0.0518100209,9.69893665 0.0431765436,9.72693712 C0.0338430547,9.75703762 0.0224095308,9.78643811 0.0161094258,9.81793863 C0.00677593696,9.86553943 0.00350921584,9.91384023 0.00164251807,9.96214104 C-0.00209087749,10.0144086 0.00164251807,10.0279421 0.00210919251,10.0421757 C0.00420922751,10.0888431 0.00700927418,10.1355106 0.0163427631,10.1817114 C0.0228762053,10.2150786 0.0347764036,10.2458791 0.0448099042,10.2778463 C0.052976707,10.3039801 0.0585768003,10.3305805 0.0690769753,10.3560143 C0.0840105575,10.3921815 0.104077559,10.4257821 0.123444548,10.4593827 C0.189012308,10.5688178 0.228446298,10.6171186 0.272547033,10.660986 L9.68203068,20.7591855 C9.86426705,20.9414218 10.1032044,21.0326567 10.3421417,21.0326567 C10.581079,21.0326567 10.819783,20.9414218 11.0022527,20.7591855 C11.3667254,20.3947127 11.3667254,19.8036695 11.0022527,19.4394301 L3.1848289,10.9813722 L29.0729091,11 C29.5307475,10.9943272 30.0236543,10.6463624 30.0729091,10 C30.0236547,9.4379886 29.5307475,9.12762942 29.0729091,9 L3.18482881,8.9813722 Z" id="left-arrow"></path>
                </g>
            </g>
        </g>
    </g>
</svg>