<?xml version="1.0" encoding="UTF-8" standalone="no"?>
<svg width="31px" height="21px" viewBox="0 0 31 21" version="1.1" xmlns="http://www.w3.org/2000/svg" xmlns:xlink="http://www.w3.org/1999/xlink" xmlns:sketch="http://www.bohemiancoding.com/sketch/ns">
    <!-- Generator: Sketch 3.3.3 (12081) - http://www.bohemiancoding.com/sketch -->
    <title>right-arrow</title>
    <desc>Created with Sketch.</desc>
    <defs></defs>
    <g id="Page-1" stroke="none" stroke-width="1" fill="none" fill-rule="evenodd" sketch:type="MSPage">
        <g id="Homepage-#2" sketch:type="MSArtboardGroup" transform="translate(-750.000000, -2337.000000)" fill="#000000">
            <g id="work" sketch:type="MSLayerGroup" transform="translate(0.000000, 1623.000000)">
                <g id="arrows" transform="translate(701.000000, 714.000000)" sketch:type="MSShapeGroup">
                    <path d="M53.1119197,8.9813722 L60.9291102,1.63195718 C61.293583,1.26748444 61.293583,0.676441254 60.9291102,0.311968512 C60.5646375,-0.0525042287 59.9735943,-0.0525042287 59.6091216,0.311968512 L50.1984712,9.340064 C50.1550705,9.38346472 50.1163365,9.43153219 50.082036,9.48263304 C50.0680357,9.50340006 50.0587022,9.5262671 50.0465687,9.54773413 C50.0290684,9.57923465 50.0101681,9.60980183 49.9961679,9.64340239 C49.9849677,9.67070285 49.9789009,9.69893665 49.9702674,9.72693712 C49.9609339,9.75703762 49.9495004,9.78643811 49.9432003,9.81793863 C49.9338668,9.86553943 49.9306001,9.91384023 49.9287334,9.96214104 C49.925,10.0144086 49.9287334,10.0279421 49.9292001,10.0421757 C49.9313001,10.0888431 49.9341002,10.1355106 49.9434336,10.1817114 C49.9499671,10.2150786 49.9618673,10.2458791 49.9719008,10.2778463 C49.9800676,10.3039801 49.9856677,10.3305805 49.9961679,10.3560143 C50.0111014,10.3921815 50.0311684,10.4257821 50.0505354,10.4593827 C50.1161032,10.5688178 50.1555372,10.6171186 50.1996379,10.660986 L59.6091216,20.7591855 C59.7913579,20.9414218 60.0302952,21.0326567 60.2692326,21.0326567 C60.5081699,21.0326567 60.7468739,20.9414218 60.9293436,20.7591855 C61.2938163,20.3947127 61.2938163,19.8036695 60.9293436,19.4394301 L53.1119198,10.9813722 L79,11 C79.4578384,10.9943272 79.9507452,10.6463624 80,10 C79.9507456,9.4379886 79.4578384,9.12762942 79,9 L53.1119197,8.9813722 Z" id="right-arrow" transform="translate(64.963545, 10.535635) scale(-1, 1) translate(-64.963545, -10.535635) "></path>
                </g>
            </g>
        </g>
    </g>
</svg>