<?xml version="1.0" encoding="UTF-8" standalone="no"?>
<svg width="20px" height="17px" viewBox="0 0 20 17" version="1.1" xmlns="http://www.w3.org/2000/svg" xmlns:xlink="http://www.w3.org/1999/xlink" xmlns:sketch="http://www.bohemiancoding.com/sketch/ns">
    <!-- Generator: Sketch 3.3.3 (12081) - http://www.bohemiancoding.com/sketch -->
    <title>twitter</title>
    <desc>Created with Sketch.</desc>
    <defs></defs>
    <g id="Page-1" stroke="none" stroke-width="1" fill="none" fill-rule="evenodd" sketch:type="MSPage">
        <g id="Homepage-#2" sketch:type="MSArtboardGroup" transform="translate(-1040.000000, -3821.000000)" fill="#010002">
            <g id="footer" sketch:type="MSLayerGroup" transform="translate(0.000000, 3476.000000)">
                <g id="social-icons" transform="translate(990.000000, 343.000000)" sketch:type="MSShapeGroup">
                    <path d="M69.9944584,3.93599937 C69.2585512,4.26208547 68.4689335,4.48323332 67.6392942,4.58196413 C68.4864123,4.07468642 69.13486,3.27007283 69.4421932,2.31425931 C68.6475768,2.78403107 67.7704669,3.12514567 66.8358894,3.31006174 C66.087502,2.51168825 65.0229931,2.01440777 63.8422746,2.01440777 C61.5770854,2.01440777 59.7404376,3.85105559 59.7404376,6.11500329 C59.7404376,6.43609077 59.7766694,6.74969666 59.84665,7.04958086 C56.4382483,6.87838648 53.415916,5.2454077 51.3931106,2.76403661 C51.0395158,3.36877096 50.8383624,4.07341227 50.8383624,4.82558942 C50.8383624,6.24869173 51.5630308,7.50435678 52.66253,8.23898977 C51.9903307,8.21651234 51.3581203,8.03159627 50.8046463,7.72423048 L50.8046463,7.77545811 C50.8046463,9.7620317 52.2189928,11.4200036 54.0943554,11.79735 C53.7507578,11.889808 53.38844,11.9410356 53.0136092,11.9410356 C52.748748,11.9410356 52.4926098,11.9148011 52.2414703,11.8648149 C52.7637111,13.4953107 54.27803,14.6809952 56.0722059,14.7135025 C54.6690981,15.8130017 52.8999152,16.466448 50.9783236,16.466448 C50.6472389,16.466448 50.3211201,16.4464536 50.0000327,16.4102218 C51.8154445,17.5759445 53.9706969,18.2556254 56.2871137,18.2556254 C63.8323427,18.2556254 67.9566898,12.0060176 67.9566898,6.58604921 L67.9429355,6.05505258 C68.7487906,5.48027725 69.4459503,4.75812446 69.9944584,3.93599937 L69.9944584,3.93599937 Z" id="twitter"></path>
                </g>
            </g>
        </g>
    </g>
</svg>
