<?xml version="1.0" encoding="UTF-8" standalone="no"?>
<svg width="66px" height="63px" viewBox="0 0 66 63" version="1.1" xmlns="http://www.w3.org/2000/svg" xmlns:xlink="http://www.w3.org/1999/xlink" xmlns:sketch="http://www.bohemiancoding.com/sketch/ns">
    <!-- Generator: Sketch 3.3.3 (12081) - http://www.bohemiancoding.com/sketch -->
    <title>design-icon</title>
    <desc>Created with Sketch.</desc>
    <defs></defs>
    <g id="Page-1" stroke="none" stroke-width="1" fill="none" fill-rule="evenodd" sketch:type="MSPage">
        <g id="Homepage-#2" sketch:type="MSArtboardGroup" transform="translate(-367.000000, -1254.000000)">
            <g id="services" sketch:type="MSLayerGroup" transform="translate(0.000000, 1040.000000)">
                <g id="design" transform="translate(200.000000, 215.000000)" sketch:type="MSShapeGroup">
                    <g id="design-icon" transform="translate(169.000000, 0.000000)">
                        <path d="M4,5 L29.2536125,5 C34.0221389,5 42,17.4135303 42,17.4135303 L42,60 L4,60 L4,5 Z" id="Rectangle-70" fill="#FBF393"></path>
                        <path d="M41.3801143,15.3772693 L41.3801143,57.6982105 C41.3801143,58.8991517 40.3637143,59.9118575 39.1625143,59.9118575 L2.49857143,59.9118575 C1.2936,59.9118575 0.279085714,58.9160928 0.279085714,57.6982105 L0.279085714,3.16456342 C0.279085714,1.94668107 1.27662857,0.95091636 2.49857143,0.95091636 L26.9261143,0.95091636 L41.3801143,15.3772693 Z M41.3801143,15.3772693 L29.1437143,15.3772693 C27.9236571,15.3772693 26.9261143,14.3815046 26.9261143,13.1636222 L26.9261143,0.95091636 L41.3801143,15.3772693 L41.3801143,15.3772693 Z" id="Stroke-1" stroke="#000000" stroke-width="3" stroke-linecap="round" stroke-linejoin="round"></path>
                        <path d="M49.2378857,8.35044577 L57.156,8.35044577 L57.156,49.365034 C57.156,57.5419752 49.2378857,57.5419752 49.2378857,49.365034 L49.2378857,8.35044577 L49.2378857,8.35044577 Z" id="Fill-2"></path>
                        <path d="M49.2378857,8.35044577 L57.156,8.35044577 L57.156,49.365034 C57.156,57.5419752 49.2378857,57.5419752 49.2378857,49.365034 L49.2378857,8.35044577 L49.2378857,8.35044577 Z" id="Stroke-3" stroke="#000000" stroke-width="3" stroke-linecap="round" stroke-linejoin="round"></path>
                        <path d="M62.3077714,30.1292693 L62.3379429,14.8087987 L49.1907429,14.8087987" id="Stroke-5" stroke="#000000" stroke-width="3" stroke-linecap="round" stroke-linejoin="round"></path>
                        <path d="M53.064,59.9118575 L53.064,55.4939752" id="Fill-6" fill="#86EEF0"></path>
                        <path d="M53,59.9118575 L53,55.4939752" id="Stroke-7" stroke="#000000" stroke-width="2" stroke-linecap="round" stroke-linejoin="round"></path>
                        <path d="M9.14571429,12.8116222 L20.8296,12.8116222 M9.14571429,23.8497399 L32.5153714,23.8497399 M9.14571429,30.293034 L32.5153714,30.293034 M9.14571429,36.7363281 L32.5153714,36.7363281 M9.14571429,43.1796222 L20.8296,43.1796222" id="Stroke-8" stroke="#443B30" stroke-width="2" stroke-linecap="round" stroke-linejoin="round"></path>
                    </g>
                </g>
            </g>
        </g>
    </g>
</svg>