<?xml version="1.0" encoding="UTF-8" standalone="no"?>
<svg width="20px" height="18px" viewBox="0 0 20 18" version="1.1" xmlns="http://www.w3.org/2000/svg" xmlns:xlink="http://www.w3.org/1999/xlink" xmlns:sketch="http://www.bohemiancoding.com/sketch/ns">
    <!-- Generator: Sketch 3.3.3 (12081) - http://www.bohemiancoding.com/sketch -->
    <title>github</title>
    <desc>Created with Sketch.</desc>
    <defs></defs>
    <g id="Page-1" stroke="none" stroke-width="1" fill="none" fill-rule="evenodd" sketch:type="MSPage">
        <g id="Homepage-#2" sketch:type="MSArtboardGroup" transform="translate(-990.000000, -3820.000000)" fill="#030104">
            <g id="footer" sketch:type="MSLayerGroup" transform="translate(0.000000, 3476.000000)">
                <g id="social-icons" transform="translate(990.000000, 343.000000)" sketch:type="MSShapeGroup">
                    <path d="M13.4785714,10.9614286 C13.8628571,10.9614286 14.1814286,11.1514286 14.4585714,11.5271429 C14.7328571,11.9057143 14.8785714,12.3671429 14.8785714,12.92 C14.8785714,13.47 14.7328571,13.9357143 14.4585714,14.31 C14.1828571,14.6885714 13.8628571,14.8757143 13.4785714,14.8757143 C13.0814286,14.8757143 12.7328571,14.6885714 12.4571429,14.31 C12.1828571,13.9357143 12.0371429,13.47 12.0371429,12.92 C12.0371429,12.3671429 12.1828571,11.9057143 12.4571429,11.5271429 C12.7314286,11.15 13.08,10.9614286 13.4785714,10.9614286 M18.3928571,5.87714286 C19.4585714,7.03571429 20,8.44142857 20,10.0957143 C20,11.1642857 19.8771429,12.1285714 19.63,12.9857143 C19.38,13.8385714 19.0671429,14.5342857 18.6957143,15.07 C18.3185714,15.6071429 17.8557143,16.0771429 17.3042857,16.4828571 C16.7528571,16.8914286 16.2457143,17.1857143 15.7828571,17.3728571 C15.3185714,17.5614286 14.79,17.7057143 14.1957143,17.81 C13.6,17.9114286 13.1585714,17.9685714 12.8485714,17.9857143 C12.5442857,17.9985714 12.2228571,18.0057143 11.87,18.0057143 C11.7914286,18.0057143 11.5228571,18.0114286 11.0885714,18.0271429 C10.6585714,18.0457143 10.2885714,18.05 10,18.05 C9.71142857,18.05 9.34142857,18.0457143 8.91142857,18.0271429 C8.47714286,18.0114286 8.20857143,18.0057143 8.13,18.0057143 C7.77857143,18.0057143 7.45571429,17.9985714 7.15142857,17.9857143 C6.84,17.9685714 6.4,17.9114286 5.80428571,17.81 C5.2,17.7071429 4.68142857,17.5614286 4.21714286,17.3728571 C3.75428571,17.1857143 3.24571429,16.8914286 2.69714286,16.4828571 C2.14428571,16.0771429 1.68142857,15.6071429 1.30428571,15.07 C0.931428571,14.5342857 0.62,13.8385714 0.37,12.9857143 C0.122857143,12.1285714 0,11.1642857 0,10.0957143 C0,8.44142857 0.541428571,7.03428571 1.60714286,5.87714286 C1.49,5.81857143 1.48571429,5.23857143 1.59571429,4.13857143 C1.68571429,3.03714286 1.92,2.02142857 2.30285714,1.09285714 C3.63714286,1.23428571 5.28857143,1.99142857 7.26142857,3.35142857 C7.92714286,3.18142857 8.83428571,3.09 10,3.09 C11.2171429,3.09 12.13,3.18142857 12.74,3.35285714 C13.6385714,2.74571429 14.4971429,2.25142857 15.3185714,1.87571429 C16.1528571,1.50285714 16.7542857,1.28142857 17.1314286,1.22285714 L17.6971429,1.09428571 C18.0828571,2.02142857 18.3171429,3.03714286 18.4057143,4.14 C18.5142857,5.23857143 18.51,5.81857143 18.3928571,5.87714286 M10.0428571,17.0485714 C12.4542857,17.0485714 14.2628571,16.76 15.5014286,16.1814286 C16.7228571,15.6042857 17.3471429,14.4128571 17.3471429,12.6157143 C17.3471429,11.5728571 16.9571429,10.7014286 16.1728571,10.0042857 C15.7757143,9.62857143 15.2971429,9.39714286 14.76,9.31 C14.2242857,9.22285714 13.4042857,9.22285714 12.3028571,9.31 C11.2042857,9.39857143 10.4485714,9.43857143 10.0428571,9.43857143 C9.49285714,9.43857143 8.9,9.41285714 8.15857143,9.35428571 C7.41571429,9.29714286 6.83285714,9.26142857 6.41142857,9.24285714 C5.99142857,9.23 5.54142857,9.28142857 5.04285714,9.39714286 C4.55,9.51428571 4.14428571,9.71714286 3.82428571,10.0042857 C3.08,10.6742857 2.69571429,11.5428571 2.69571429,12.6157143 C2.69571429,14.4128571 3.30428571,15.6042857 4.52428571,16.1814286 C5.73857143,16.76 7.54285714,17.0485714 9.95571429,17.0485714 L10.0428571,17.0485714 M6.56571429,10.9614286 C6.94857143,10.9614286 7.26857143,11.1514286 7.54428571,11.5271429 C7.81857143,11.9057143 7.96428571,12.3671429 7.96428571,12.92 C7.96428571,13.47 7.81857143,13.9357143 7.54428571,14.31 C7.27,14.6885714 6.94857143,14.8757143 6.56571429,14.8757143 C6.16714286,14.8757143 5.82,14.6885714 5.54285714,14.31 C5.26857143,13.9357143 5.12285714,13.47 5.12285714,12.92 C5.12285714,12.3671429 5.26857143,11.9057143 5.54285714,11.5271429 C5.81857143,11.15 6.16571429,10.9614286 6.56571429,10.9614286" id="github"></path>
                </g>
            </g>
        </g>
    </g>
</svg>