<?xml version="1.0" encoding="UTF-8" standalone="no"?>
<svg width="31px" height="21px" viewBox="0 0 31 21" version="1.1" xmlns="http://www.w3.org/2000/svg" xmlns:xlink="http://www.w3.org/1999/xlink" xmlns:sketch="http://www.bohemiancoding.com/sketch/ns">
    <!-- Generator: Sketch 3.3.3 (12081) - http://www.bohemiancoding.com/sketch -->
    <title>left-arrow</title>
    <desc>Created with Sketch.</desc>
    <defs></defs>
    <g id="Page-1" stroke="none" stroke-width="1" fill="none" fill-rule="evenodd" sketch:type="MSPage">
        <g id="Homepage-#2" sketch:type="MSArtboardGroup" transform="translate(-701.000000, -2377.000000)" fill="#000000">
            <g id="work" sketch:type="MSLayerGroup" transform="translate(0.000000, 1623.000000)">
                <g id="arrows" transform="translate(701.000000, 714.000000)" sketch:type="MSShapeGroup">
                    <path d="M3.18482881,48.9813722 L11.0020193,41.6319572 C11.3664921,41.2674844 11.3664921,40.6764413 11.0020193,40.3119685 C10.6375466,39.9474958 10.0465034,39.9474958 9.68203068,40.3119685 L0.271380347,49.340064 C0.227979624,49.3834647 0.189245645,49.4315322 0.154945073,49.482633 C0.14094484,49.5034001 0.131611351,49.5262671 0.119477815,49.5477341 C0.101977524,49.5792347 0.0830772086,49.6098018 0.0690769753,49.6434024 C0.0578767886,49.6707028 0.0518100209,49.6989366 0.0431765436,49.7269371 C0.0338430547,49.7570376 0.0224095308,49.7864381 0.0161094258,49.8179386 C0.00677593696,49.8655394 0.00350921584,49.9138402 0.00164251807,49.962141 C-0.00209087749,50.0144086 0.00164251807,50.0279421 0.00210919251,50.0421757 C0.00420922751,50.0888431 0.00700927418,50.1355106 0.0163427631,50.1817114 C0.0228762053,50.2150786 0.0347764036,50.2458791 0.0448099042,50.2778463 C0.052976707,50.3039801 0.0585768003,50.3305805 0.0690769753,50.3560143 C0.0840105575,50.3921815 0.104077559,50.4257821 0.123444548,50.4593827 C0.189012308,50.5688178 0.228446298,50.6171186 0.272547033,50.660986 L9.68203068,60.7591855 C9.86426705,60.9414218 10.1032044,61.0326567 10.3421417,61.0326567 C10.581079,61.0326567 10.819783,60.9414218 11.0022527,60.7591855 C11.3667254,60.3947127 11.3667254,59.8036695 11.0022527,59.4394301 L3.1848289,50.9813722 L29.0729091,51 C29.5307475,50.9943272 30.0236543,50.6463624 30.0729091,50 C30.0236547,49.4379886 29.5307475,49.1276294 29.0729091,49 L3.18482881,48.9813722 Z" id="left-arrow"></path>
                </g>
            </g>
        </g>
    </g>
</svg>