<?xml version="1.0" encoding="UTF-8" standalone="no"?>
<svg width="31px" height="21px" viewBox="0 0 31 21" version="1.1" xmlns="http://www.w3.org/2000/svg" xmlns:xlink="http://www.w3.org/1999/xlink" xmlns:sketch="http://www.bohemiancoding.com/sketch/ns">
    <!-- Generator: Sketch 3.3.3 (12081) - http://www.bohemiancoding.com/sketch -->
    <title>right-arrow-inactive</title>
    <desc>Created with Sketch.</desc>
    <defs></defs>
    <g id="Page-1" stroke="none" stroke-width="1" fill="none" fill-rule="evenodd" sketch:type="MSPage">
        <g id="Homepage-#2" sketch:type="MSArtboardGroup" transform="translate(-750.000000, -2377.000000)" fill="#EDE8DA">
            <g id="work" sketch:type="MSLayerGroup" transform="translate(0.000000, 1623.000000)">
                <g id="arrows" transform="translate(701.000000, 714.000000)" sketch:type="MSShapeGroup">
                    <path d="M53.1119197,48.9813722 L60.9291102,41.6319572 C61.293583,41.2674844 61.293583,40.6764413 60.9291102,40.3119685 C60.5646375,39.9474958 59.9735943,39.9474958 59.6091216,40.3119685 L50.1984712,49.340064 C50.1550705,49.3834647 50.1163365,49.4315322 50.082036,49.482633 C50.0680357,49.5034001 50.0587022,49.5262671 50.0465687,49.5477341 C50.0290684,49.5792347 50.0101681,49.6098018 49.9961679,49.6434024 C49.9849677,49.6707028 49.9789009,49.6989366 49.9702674,49.7269371 C49.9609339,49.7570376 49.9495004,49.7864381 49.9432003,49.8179386 C49.9338668,49.8655394 49.9306001,49.9138402 49.9287334,49.962141 C49.925,50.0144086 49.9287334,50.0279421 49.9292001,50.0421757 C49.9313001,50.0888431 49.9341002,50.1355106 49.9434336,50.1817114 C49.9499671,50.2150786 49.9618673,50.2458791 49.9719008,50.2778463 C49.9800676,50.3039801 49.9856677,50.3305805 49.9961679,50.3560143 C50.0111014,50.3921815 50.0311684,50.4257821 50.0505354,50.4593827 C50.1161032,50.5688178 50.1555372,50.6171186 50.1996379,50.660986 L59.6091216,60.7591855 C59.7913579,60.9414218 60.0302952,61.0326567 60.2692326,61.0326567 C60.5081699,61.0326567 60.7468739,60.9414218 60.9293436,60.7591855 C61.2938163,60.3947127 61.2938163,59.8036695 60.9293436,59.4394301 L53.1119198,50.9813722 L79,51 C79.4578384,50.9943272 79.9507452,50.6463624 80,50 C79.9507456,49.4379886 79.4578384,49.1276294 79,49 L53.1119197,48.9813722 Z" id="right-arrow-inactive" transform="translate(64.963545, 50.535635) scale(-1, 1) translate(-64.963545, -50.535635) "></path>
                </g>
            </g>
        </g>
    </g>
</svg>