<?xml version="1.0" encoding="UTF-8" standalone="no"?>
<svg width="63px" height="63px" viewBox="0 0 63 63" version="1.1" xmlns="http://www.w3.org/2000/svg" xmlns:xlink="http://www.w3.org/1999/xlink" xmlns:sketch="http://www.bohemiancoding.com/sketch/ns">
    <!-- Generator: Sketch 3.3.3 (12081) - http://www.bohemiancoding.com/sketch -->
    <title>tech-icon</title>
    <desc>Created with Sketch.</desc>
    <defs></defs>
    <g id="Page-1" stroke="none" stroke-width="1" fill="none" fill-rule="evenodd" sketch:type="MSPage">
        <g id="Homepage-#2" sketch:type="MSArtboardGroup" transform="translate(-848.000000, -1253.000000)">
            <g id="services" sketch:type="MSLayerGroup" transform="translate(0.000000, 1040.000000)">
                <g id="tech" transform="translate(680.000000, 215.000000)" sketch:type="MSShapeGroup">
                    <g id="tech-icon" transform="translate(170.000000, 0.000000)">
                        <path d="M40.1993878,5.84480285 C36.8657143,9.21446229 35.725102,13.9624499 36.7757143,18.2776202 L5.62102041,49.7859793 C3.02020408,52.4181775 0.848564288,55.2764366 3.45672755,57.9142075 C6.06489082,60.5519784 10.3316255,60.5519784 12.9397888,57.9142075 L44.0944827,26.4058483 C48.3612173,27.468387 53.0559112,26.3148267 56.387748,22.9433096 C59.8812173,19.4120403 60.9667276,14.3705542 59.6461153,9.89748919 L53.0963194,16.5216378 L49.6616255,15.5909876 L48.3893878,16.1228214 L43.8721664,8.03968781 L50.4219624,1.41553921 C47.158794,3.5462245 43.6910204,2.3135335 40.1993878,5.84480285 Z" id="Path" fill="#FF9494"></path>
                        <path d="M50.0987755,0.549446809 C45.6777551,-0.786156906 40.6910204,0.313533496 37.1993878,3.84480285 C33.8657143,7.21446229 32.725102,11.9624499 33.7757143,16.2776202 L2.62102041,47.7859793 C0.0202040816,50.4181775 0.0128571429,54.7389205 2.62102041,57.3766914 C5.22918367,60.0144623 9.49591837,60.0144623 12.1040816,57.3766914 L43.2587755,25.8683323 C47.5255102,26.930871 52.2202041,25.7773106 55.5520408,22.4057936 C59.0455102,18.8745242 60.1310204,13.8330381 58.8104082,9.35997312 L52.2606122,15.9841217 L48.8259184,15.0534716 L45.3893878,14.1228214 L43.5489796,7.17359542 L50.0987755,0.549446809 L50.0987755,0.549446809 Z M44.0577551,37.1494468 L54.574898,47.7859793 C57.1738776,50.4126047 57.1830612,54.7389205 54.574898,57.3766914 C51.9667347,60.0144623 47.7,60.0144623 45.0918367,57.3766914 L34.5746939,46.7401589 L44.0577551,37.1494468 L44.0577551,37.1494468 Z M10.5740816,12.8763818 L23.5689796,26.0169391 L10.5740816,12.8763818 Z M33.3385714,35.899292 L39.3685714,41.9958864 L33.3385714,35.899292 Z M0,5.7005304 L4.1455102,1.50610316 L13.8159184,7.46709387 L5.89408163,15.4788586 L0,5.7005304 L0,5.7005304 Z" id="Imported-Layers" stroke="#000000" stroke-width="3"></path>
                        <path d="M40.8088235,18.8544892 L9.30504324,49.8055716" id="Path" stroke="#000000" stroke-width="2"></path>
                    </g>
                </g>
            </g>
        </g>
    </g>
</svg>